<?xml version="1.0" encoding="utf-8"?>
<!-- Generator: Adobe Illustrator 15.0.2, SVG Export Plug-In . SVG Version: 6.00 Build 0)  -->
<!DOCTYPE svg PUBLIC "-//W3C//DTD SVG 1.1//EN" "http://www.w3.org/Graphics/SVG/1.1/DTD/svg11.dtd">
<svg version="1.1" id="Шар_1" xmlns="http://www.w3.org/2000/svg" xmlns:xlink="http://www.w3.org/1999/xlink" x="0px" y="0px"
	 width="20px" height="20px" viewBox="0 0 20 20" enable-background="new 0 0 20 20" xml:space="preserve">
<path fill="none" d="M8.951,9.411c-1.255-0.559-2.607-0.858-3.66-1.119c2.337,2.436,1.604,5.38,1.192,6.513
	c0.331,0.238,0.686,0.443,1.059,0.61C7.819,14.651,8.545,12.457,8.951,9.411z"/>
<path fill="none" d="M10.42,8.486c0.734,0.332,1.354,0.689,1.879,1.055c-0.353-1.383-0.622-3.111-0.723-5.305
	c-0.367-0.104-0.743-0.18-1.13-0.211C10.542,4.999,10.612,6.528,10.42,8.486z"/>
<path fill="#6C6C6C" d="M15.238,12.764c-2.475-3.282-1.45-7.09-1.388-7.31c-0.66-0.567-1.435-0.98-2.274-1.217
	c0.101,2.193,0.37,3.921,0.723,5.305c-0.525-0.366-1.145-0.723-1.879-1.055c0.192-1.958,0.122-3.487,0.026-4.46
	C10.04,3.993,9.626,4.007,9.21,4.061C9.262,5.446,9.219,6.76,9.113,7.969C7.88,7.539,6.367,7.32,4.571,7.125l0.119,0.12
	C4.417,7.776,4.216,8.346,4.107,8.94c0.921,0.868,2.123,2.486,1.225,4.761c0.336,0.42,0.722,0.792,1.151,1.104
	c0.412-1.133,1.145-4.077-1.192-6.513c1.052,0.261,2.404,0.56,3.66,1.119c-0.406,3.046-1.132,5.24-1.409,6.004
	c0.36,0.161,0.738,0.283,1.126,0.371c0.793-2.088,1.281-4.031,1.552-5.74c1.719,0.96,3.255,2.292,3.978,4.125
	C14.613,13.753,14.963,13.279,15.238,12.764z"/>
<path fill="#D66244" d="M9.526,15.923C9.235,15.9,8.95,15.85,8.668,15.786c-0.388-0.088-0.766-0.21-1.126-0.371
	c-0.373-0.167-0.728-0.372-1.059-0.61c-0.43-0.312-0.815-0.684-1.151-1.104c-0.093-0.115-0.188-0.229-0.272-0.352l-2.992,0.787
	c1.595,3.03,4.812,4.889,8.237,4.752L9.526,15.923z"/>
<path fill="#EAC282" d="M4.571,7.125L2.526,5.06c-0.995,1.508-1.537,3.308-1.481,5.177l2.99-0.786
	C4.05,9.279,4.077,9.109,4.107,8.94C4.216,8.346,4.417,7.776,4.69,7.245L4.571,7.125z"/>
<path fill="#70A593" d="M7.685,1.351c-0.772,0.203-1.494,0.502-2.156,0.88l2.2,2.22c0.237-0.096,0.476-0.188,0.73-0.255
	C8.709,4.13,8.96,4.094,9.21,4.061c0.417-0.054,0.83-0.067,1.236-0.035c0.387,0.031,0.763,0.107,1.13,0.211
	c0.84,0.237,1.614,0.65,2.274,1.217c0.391,0.335,0.749,0.711,1.046,1.144l2.94-0.774C15.947,2.231,11.779,0.275,7.685,1.351z"/>
<path fill="#E78E46" d="M15.92,10.495c-0.069,0.804-0.311,1.571-0.682,2.269c-0.275,0.516-0.625,0.989-1.04,1.407
	c-0.251,0.252-0.519,0.488-0.814,0.694l0.781,2.974c2.969-1.59,4.799-4.745,4.698-8.117L15.92,10.495z"/>
</svg>
